# xmcd CD database file generated by Grip 2.95
# 
# Track frame offsets:
#       150
#       12513
#       23527
#       33682
#       45470
#       58193
#       68550
#       79449
#       91444
#       99148
#       107557
#       117445
# 
# Disc length: 1701 seconds
# 
# Revision: 3
# Processed by: cddbd v1.4PL0 Copyright (c) Steve Scherf et al.
# Submitted via: Grip 2.95
# 
DISCID=9406a30c
DTITLE=Johnny Cash - Sun Records - 50th Anniversary Edition
DYEAR=1900
DGENRE=
TTITLE0=I Walk The Line
TTITLE1=Cry, Cry, Cry
TTITLE2=The Ways Of A Woman In Love
TTITLE3=So Doggone Lonesome
TTITLE4=Folsom Prison Blues
TTITLE5=There You Go
TTITLE6=Train Of Love
TTITLE7=You're The Nearest Thing To Heaven
TTITLE8=Come In Stranger
TTITLE9=Guess Things Happen That Way
TTITLE10=Ballad Of A Teenage Queen
TTITLE11=Get Rhythm
EXTD=
EXTT0=
EXTT1=
EXTT2=
EXTT3=
EXTT4=
EXTT5=
EXTT6=
EXTT7=
EXTT8=
EXTT9=
EXTT10=
EXTT11=
PLAYORDER=
